<svg width="331" height="353" viewBox="0 0 331 353" fill="none" xmlns="http://www.w3.org/2000/svg">
<path d="M199.67 256.473L192.456 245.834C166.805 208.166 149.881 183.254 155.644 159.211C160.367 139.504 179.458 127.84 199.068 132.556C210.146 135.22 219.54 142.942 224.539 152.711C233.42 146.28 245.291 143.671 256.369 146.336C275.978 151.051 287.702 170.126 282.979 189.833C277.217 213.876 250.846 228.377 210.919 250.274L199.67 256.473Z" fill="#FBF4EF" fill-opacity="0.38"/>
<path d="M160.044 51.5655L311.943 82.3784C324.334 85.0691 324.334 95.2244 322.081 105.206L278.756 328.274C275.81 341.207 269.398 347.717 255.1 344.853L108.401 315.168C94.1031 311.436 92.7167 302.062 95.0563 289.129L140.461 64.3247C143.234 54.777 148.087 48.1804 160.044 51.5655Z" fill="#FBF4EF" fill-opacity="0.38" stroke="#FBF4EF" stroke-opacity="0.38" stroke-width="14" stroke-linecap="round" stroke-linejoin="round"/>
<path d="M264.203 72.6572V55.2978C263.423 44.2745 259.61 35.942 248.086 36.2892L94.1941 45.1425C81.1964 45.1425 75.6508 52.1731 76.2574 63.1963L89.9482 292.34C89.6363 295.058 89.8686 297.81 90.6315 300.436C91.3944 303.063 92.6726 305.51 94.3912 307.636C96.1098 309.762 98.2344 311.523 100.641 312.816C103.047 314.109 105.686 314.909 108.405 315.168C103.147 314.296 98.2694 311.873 94.3949 308.208C90.5203 304.544 87.8256 299.804 86.6554 294.597L9.44964 87.7598C6.24356 77.6914 5.03045 67.8833 17.5948 62.6755L158.142 9.64256C172.006 4.43474 177.899 6.60467 183.271 19.0166L190.896 39.4139" fill="#FBF4EF" fill-opacity="0.38"/>
<path d="M264.203 72.6572V55.2978C263.423 44.2745 259.61 35.942 248.086 36.2892L94.1941 45.1425C81.1964 45.1425 75.6508 52.1731 76.2574 63.1963L89.9482 292.34C89.6363 295.058 89.8686 297.81 90.6315 300.436C91.3944 303.063 92.6726 305.51 94.3912 307.636C96.1098 309.762 98.2344 311.523 100.641 312.816C103.047 314.109 105.686 314.909 108.405 315.168C103.147 314.296 98.2694 311.873 94.3949 308.208C90.5203 304.544 87.8256 299.804 86.6554 294.597L9.44964 87.7598C6.24356 77.6914 5.03045 67.8833 17.5948 62.6755L158.142 9.64256C172.006 4.43474 177.899 6.60467 183.271 19.0166L190.896 39.4139" stroke="#FBF4EF" stroke-opacity="0.38" stroke-width="14" stroke-linecap="round" stroke-linejoin="round"/>
<path d="M148.092 103.123L175.993 70.1401L184.052 111.542M158.317 91.4054L181.279 96.6132L158.317 91.4054ZM233.529 289.129L244.101 328.101L269.403 295.118M237.169 302.148L260.218 307.096L237.169 302.148ZM198.089 249.463L163.429 185.927C148.872 155.114 189.424 117.184 216.546 160.756C251.206 128.381 282.227 181.067 254.759 201.985L198.089 249.463Z" fill="#FBF4EF" fill-opacity="0.47"/>
<path d="M148.092 103.123L175.993 70.1401L184.052 111.542M158.317 91.4054L181.279 96.6132M233.529 289.129L244.101 328.101L269.403 295.118M237.169 302.149L260.218 307.096M198.089 249.463L163.429 185.927C148.872 155.114 189.424 117.184 216.546 160.756C251.206 128.381 282.227 181.067 254.759 201.985L198.089 249.463Z" stroke="#FBF4EF" stroke-opacity="0.73" stroke-width="14" stroke-linecap="round" stroke-linejoin="round"/>
</svg>
