<svg width="219" height="193" viewBox="0 0 219 193" fill="none" xmlns="http://www.w3.org/2000/svg">
<path d="M201.299 35.04H26.3939C24.0746 35.04 21.8502 34.1171 20.2101 32.4743C18.5701 30.8314 17.6487 28.6033 17.6487 26.28C17.6487 23.9567 18.5701 21.7286 20.2101 20.0858C21.8502 18.4429 24.0746 17.52 26.3939 17.52H175.063C177.382 17.52 179.607 16.5971 181.247 14.9543C182.887 13.3114 183.808 11.0833 183.808 8.76C183.808 6.43671 182.887 4.20857 181.247 2.56575C179.607 0.922928 177.382 0 175.063 0H26.3939C19.4358 0 12.7626 2.76878 7.84247 7.69724C2.92232 12.6257 0.158203 19.3101 0.158203 26.28V166.44C0.158203 173.41 2.92232 180.094 7.84247 185.023C12.7626 189.951 19.4358 192.72 26.3939 192.72H201.299C205.938 192.72 210.386 190.874 213.666 187.589C216.947 184.303 218.789 179.847 218.789 175.2V52.56C218.789 47.9134 216.947 43.4571 213.666 40.1715C210.386 36.8859 205.938 35.04 201.299 35.04ZM161.945 122.64C159.351 122.64 156.815 121.869 154.657 120.426C152.5 118.982 150.819 116.93 149.826 114.528C148.833 112.127 148.573 109.485 149.079 106.937C149.586 104.388 150.835 102.046 152.67 100.209C154.504 98.371 156.841 97.1195 159.386 96.6125C161.931 96.1055 164.568 96.3657 166.965 97.3603C169.362 98.3548 171.411 100.039 172.852 102.2C174.294 104.361 175.063 106.901 175.063 109.5C175.063 112.985 173.681 116.327 171.221 118.791C168.761 121.256 165.424 122.64 161.945 122.64Z" fill="white"/>
</svg>
