<svg width="189" height="177" viewBox="0 0 189 177" fill="none" xmlns="http://www.w3.org/2000/svg">
<path d="M188.422 88.5C188.422 85.566 187.258 82.7523 185.187 80.6776C183.116 78.603 180.307 77.4375 177.378 77.4375L11.72 77.4375C8.791 77.4375 5.98195 78.603 3.91081 80.6776C1.83969 82.7523 0.676147 85.566 0.676147 88.5C0.676147 91.434 1.83969 94.2477 3.91081 96.3224C5.98195 98.397 8.791 99.5625 11.72 99.5625L177.378 99.5625C180.307 99.5625 183.116 98.397 185.187 96.3224C187.258 94.2477 188.422 91.434 188.422 88.5ZM100.071 165.938C100.071 163.004 98.9074 160.19 96.8363 158.115C94.7651 156.04 91.9561 154.875 89.0271 154.875L11.72 154.875C8.791 154.875 5.98195 156.04 3.91081 158.115C1.83969 160.19 0.676147 163.004 0.676147 165.938C0.676147 168.871 1.83969 171.685 3.91081 173.76C5.98195 175.835 8.791 177 11.72 177L89.0271 177C91.9561 177 94.7651 175.835 96.8363 173.76C98.9074 171.685 100.071 168.871 100.071 165.938ZM144.246 11.0625C144.246 8.12854 143.083 5.31475 141.012 3.24013C138.941 1.16551 136.132 0 133.203 0L11.72 0C8.791 0 5.98195 1.16551 3.91081 3.24013C1.83969 5.31475 0.676147 8.12854 0.676147 11.0625C0.676147 13.9965 1.83969 16.8102 3.91081 18.8849C5.98195 20.9595 8.791 22.125 11.72 22.125L133.203 22.125C136.132 22.125 138.941 20.9595 141.012 18.8849C143.083 16.8102 144.246 13.9965 144.246 11.0625Z" fill="#EDE6DD"/>
</svg>
