<svg width="483" height="483" viewBox="0 0 483 483" fill="none" xmlns="http://www.w3.org/2000/svg">
<path d="M159 119C159 80.3399 190.34 48.9999 229 48.9999H251C289.66 48.9999 321 80.3399 321 119V329H159V119Z" fill="#505A74"/>
<path d="M95.5 244V291L141 280V210.5L95.5 244Z" fill="#B5838D" stroke="black"/>
<path d="M390 240.621V292L332 279.975V204L390 240.621Z" fill="#B5838D" stroke="black"/>
<path fill-rule="evenodd" clip-rule="evenodd" d="M165.917 184.39L165.917 156.36C165.899 133.778 177.882 106.133 194.735 83.6392C202.099 73.5581 210.851 64.5694 220.733 56.9406C229.65 50.336 236.675 47.8658 241.107 47.8834C245.54 47.8658 252.565 50.336 261.482 56.9406C270.083 63.2999 279.158 72.5498 287.48 83.6392C304.35 106.116 316.316 133.778 316.298 156.36L316.315 312.154L276.162 312.154C274.535 312.153 272.923 312.472 271.419 313.094C269.914 313.716 268.547 314.628 267.396 315.778C266.244 316.928 265.33 318.294 264.706 319.797C264.082 321.301 263.76 322.912 263.759 324.54C263.757 327.827 265.06 330.981 267.383 333.307C268.533 334.458 269.899 335.372 271.402 335.996C272.906 336.62 274.517 336.942 276.145 336.943L328.701 336.943C330.331 336.945 331.944 336.626 333.45 336.003C334.956 335.381 336.324 334.467 337.476 333.315C338.628 332.163 339.542 330.795 340.165 329.289C340.787 327.783 341.107 326.169 341.105 324.54L341.087 305.357L395.763 319.039C397.591 319.5 399.5 319.538 401.345 319.149C403.19 318.761 404.921 317.956 406.408 316.797C407.895 315.638 409.098 314.155 409.924 312.461C410.751 310.767 411.181 308.906 411.18 307.021L411.18 236.946C411.178 235.02 410.728 233.121 409.864 231.4C409 229.679 407.747 228.183 406.204 227.03L341.087 178.206L341.105 156.36C341.087 126.385 325.916 93.5898 307.293 68.7657C297.886 56.2048 287.147 45.1154 276.198 37.0042C265.546 29.1558 253.318 23.0943 241.107 23.0768C228.897 23.0943 216.651 29.1383 206 37.0217C194.192 46.0821 183.734 56.7765 174.939 68.7833C156.264 93.5899 141.075 126.403 141.093 156.342L141.11 178.188L75.9929 227.013C74.4499 228.165 73.1969 229.661 72.3332 231.383C71.4696 233.104 71.0191 235.003 71.0176 236.929L71.0176 307.004C71.0166 308.889 71.4459 310.749 72.2728 312.443C73.0997 314.138 74.3024 315.621 75.7892 316.78C77.276 317.939 79.0077 318.743 80.8524 319.132C82.6971 319.52 84.6061 319.482 86.4341 319.021L141.093 305.357L141.093 324.522C141.091 326.152 141.41 327.766 142.033 329.271C142.655 330.777 143.569 332.145 144.721 333.297C145.873 334.45 147.241 335.363 148.747 335.986C150.253 336.608 151.867 336.928 153.496 336.926L206.052 336.926C207.681 336.926 209.294 336.605 210.799 335.982C212.304 335.358 213.671 334.445 214.823 333.293C215.975 332.141 216.888 330.774 217.511 329.269C218.135 327.764 218.456 326.151 218.456 324.522C218.456 322.894 218.135 321.281 217.511 319.776C216.888 318.271 215.975 316.904 214.823 315.752C213.671 314.6 212.304 313.687 210.799 313.063C209.294 312.44 207.681 312.119 206.052 312.119L165.899 312.154L165.917 289.502L165.917 184.39ZM386.391 291.167L341.07 279.832L341.087 209.179L386.391 243.13L386.391 291.132V291.167ZM141.128 279.814L141.128 209.179L95.8242 243.13L95.8242 291.132L141.128 279.814ZM200.937 377.114C200.938 375.486 200.619 373.874 199.997 372.37C199.375 370.866 198.463 369.499 197.313 368.347C196.163 367.195 194.797 366.281 193.294 365.657C191.79 365.033 190.179 364.712 188.551 364.71C186.923 364.709 185.311 365.029 183.807 365.651C182.303 366.272 180.936 367.184 179.784 368.335C178.632 369.485 177.719 370.85 177.095 372.354C176.471 373.857 176.149 375.469 176.148 377.096L176.148 412.134C176.15 415.421 177.458 418.573 179.784 420.895C182.11 423.218 185.264 424.522 188.551 424.52C191.838 424.517 194.99 423.209 197.313 420.883C199.635 418.557 200.939 415.403 200.937 412.116L200.937 377.079V377.114ZM253.493 377.114C253.522 375.469 253.222 373.835 252.613 372.307C252.003 370.78 251.095 369.389 249.943 368.215C248.79 367.042 247.415 366.111 245.898 365.474C244.381 364.838 242.752 364.511 241.107 364.511C239.462 364.511 237.834 364.838 236.317 365.474C234.8 366.111 233.425 367.042 232.272 368.216C231.119 369.389 230.211 370.78 229.602 372.307C228.992 373.835 228.693 375.469 228.722 377.114L228.722 447.189C228.724 450.476 230.032 453.628 232.358 455.951C234.684 458.273 237.838 459.577 241.125 459.575C244.412 459.572 247.564 458.264 249.887 455.938C252.209 453.612 253.513 450.459 253.511 447.171L253.511 377.096L253.493 377.114ZM306.049 377.114C306.051 375.486 305.731 373.874 305.109 372.37C304.488 370.866 303.576 369.499 302.425 368.347C301.275 367.195 299.91 366.281 298.406 365.657C296.903 365.033 295.291 364.712 293.664 364.71C292.036 364.709 290.424 365.029 288.92 365.651C287.416 366.272 286.049 367.184 284.897 368.334C283.745 369.485 282.831 370.85 282.207 372.354C281.583 373.857 281.262 375.469 281.26 377.096V412.134C281.263 415.421 282.571 418.573 284.897 420.895C287.223 423.218 290.376 424.522 293.664 424.52C296.951 424.517 300.103 423.209 302.425 420.883C304.748 418.557 306.052 415.403 306.049 412.116L306.049 377.079L306.049 377.114ZM262.971 188.734C268.774 182.931 272.034 175.06 272.034 166.853C272.034 158.646 268.774 150.776 262.971 144.972C257.168 139.169 249.297 135.909 241.09 135.909C232.883 135.909 225.012 139.169 219.209 144.972C213.406 150.776 210.146 158.646 210.146 166.853C210.146 175.06 213.406 182.931 219.209 188.734C225.012 194.538 232.883 197.798 241.09 197.798C249.297 197.798 257.168 194.538 262.971 188.734Z" fill="black"/>
<rect x="176" y="363" width="25" height="62" rx="12.5" fill="#E88504"/>
<rect x="229" y="363" width="25" height="97" rx="12.5" fill="#E66D15"/>
<rect x="281" y="363" width="25" height="62" rx="12.5" fill="#E88504"/>
</svg>
