<svg width="269" height="255" viewBox="0 0 269 255" fill="none" xmlns="http://www.w3.org/2000/svg">
<path d="M263.422 124.991L148.772 10.4005L141.088 2.71566C139.337 0.976234 136.969 0 134.501 0C132.032 0 129.665 0.976234 127.914 2.71566L5.57941 124.991C3.78522 126.778 2.36725 128.906 1.40919 131.25C0.451126 133.595 -0.0276128 136.107 0.00122986 138.639C0.119914 149.084 8.81356 157.421 19.2578 157.421H31.868V254.06H237.133V157.421H250.01C255.084 157.421 259.861 155.433 263.451 151.843C265.219 150.081 266.62 147.986 267.572 145.678C268.525 143.371 269.01 140.898 269 138.402C269 133.358 267.012 128.581 263.422 124.991ZM151.116 232.697H117.885V172.168H151.116V232.697ZM215.77 136.058V232.697H170.106V165.047C170.106 158.489 164.795 153.178 158.237 153.178H110.764C104.206 153.178 98.8952 158.489 98.8952 165.047V232.697H53.2313V136.058H24.747L134.53 26.3636L141.384 33.2176L244.284 136.058H215.77Z" fill="#EDE6DD"/>
</svg>
