<svg width="392" height="285" viewBox="0 0 392 285" fill="none" xmlns="http://www.w3.org/2000/svg">
<path d="M378.318 15.7125L308.755 0.934964C302.904 -0.31487 296.849 -0.31161 291 0.944524C285.151 2.20066 279.646 4.68027 274.856 8.21508L64.7319 158.49L14.2712 156.316C11.3808 156.22 8.53263 157.019 6.12876 158.601C3.72489 160.183 1.8868 162.469 0.874018 165.134C-0.138759 167.8 -0.275049 170.712 0.484393 173.458C1.24384 176.204 2.86064 178.646 5.10651 180.439L54.2423 218.795C55.0512 219.437 56.014 219.864 57.0387 220.036C58.0633 220.207 59.1154 220.116 60.0944 219.773C74.1174 214.449 126.345 187.175 188.068 153.817L200.435 278.883C200.54 279.966 200.943 281.001 201.602 281.875C202.26 282.749 203.149 283.43 204.171 283.843C205.194 284.257 206.312 284.388 207.405 284.222C208.498 284.057 209.524 283.601 210.373 282.904L237.977 260.303C239.488 259.055 240.504 257.324 240.848 255.413L267.017 111.006C311.184 86.8838 353.363 63.5222 383.065 47.0061C386.148 45.3556 388.64 42.8125 390.205 39.7215C391.769 36.6304 392.331 33.1408 391.812 29.7254C391.294 26.3099 389.722 23.1338 387.308 20.6273C384.894 18.1208 381.755 16.405 378.318 15.7125Z" fill="#FBF4EF" fill-opacity="0.38"/>
</svg>
