<svg width="77" height="99" viewBox="0 0 77 99" fill="none" xmlns="http://www.w3.org/2000/svg">
<path d="M8.25 16.5C6.06196 16.5 3.96354 15.6308 2.41637 14.0836C0.869193 12.5365 0 10.438 0 8.25C0 6.06196 0.869193 3.96355 2.41637 2.41637C3.96354 0.869194 6.06196 0 8.25 0H68.75C70.938 0 73.0365 0.869194 74.5836 2.41637C76.1308 3.96355 77 6.06196 77 8.25C77 10.438 76.1308 12.5365 74.5836 14.0836C73.0365 15.6308 70.938 16.5 68.75 16.5H49.379C51.5434 19.8771 53.1204 23.5963 54.043 27.5H68.75C70.938 27.5 73.0365 28.3692 74.5836 29.9164C76.1308 31.4635 77 33.562 77 35.75C77 37.938 76.1308 40.0365 74.5836 41.5836C73.0365 43.1308 70.938 44 68.75 44H54.043C52.6575 49.8192 49.8368 55.1988 45.8383 59.6479C41.8398 64.097 36.7908 67.4739 31.152 69.4705L51.546 84.0345C52.4279 84.6643 53.1771 85.4617 53.7508 86.3811C54.3246 87.3004 54.7116 88.3238 54.8899 89.3927C55.0681 90.4617 55.0341 91.5552 54.7897 92.611C54.5453 93.6668 54.0953 94.6641 53.4655 95.546C52.8357 96.4279 52.0383 97.1771 51.119 97.7508C50.1996 98.3246 49.1762 98.7116 48.1073 98.8899C47.0383 99.0681 45.9448 99.0341 44.889 98.7897C43.8332 98.5453 42.8359 98.0953 41.954 97.4655L3.5585 70.037C2.49694 69.3115 1.6218 68.3456 1.00436 67.2177C0.38693 66.0899 0.04468 64.8322 0.0054996 63.547C-0.056965 61.5041 0.629636 59.5089 1.936 57.937C3.542 56.0285 5.8465 54.967 8.36 55H19.25C22.8935 55.0008 26.4624 53.9675 29.5419 52.0203C32.6213 50.0731 35.085 47.2919 36.6465 44H8.25C6.06196 44 3.96354 43.1308 2.41637 41.5836C0.869193 40.0365 0 37.938 0 35.75C0 33.562 0.869193 31.4635 2.41637 29.9164C3.96354 28.3692 6.06196 27.5 8.25 27.5H36.6465C35.085 24.2081 32.6213 21.4269 29.5419 19.4797C26.4624 17.5325 22.8935 16.4993 19.25 16.5H8.25Z" fill="#E9E6DD"/>
</svg>
