<svg width="134" height="122" viewBox="0 0 134 122" fill="none" xmlns="http://www.w3.org/2000/svg">
<path d="M116.154 47.0103C121.937 43.7529 124.834 42.1242 126.414 39.4951C128 36.8721 128 33.7062 128 27.3744V23.1654C128 15.0768 128 11.0264 125.316 8.5132C122.644 6 118.331 6 109.7 6H24.3C15.6746 6 11.3619 6 8.684 8.5132C6 11.0264 6 15.0768 6 23.1715V27.3805C6 33.7062 6 36.8721 7.586 39.4951C9.172 42.1181 12.0573 43.7529 17.8462 47.0103L35.6155 57.0143C39.4951 59.1981 41.441 60.29 42.8318 61.4978C45.7232 64.0049 47.5044 66.9573 48.3096 70.5868C48.7 72.3192 48.7 74.3566 48.7 78.4253V94.7123C48.7 100.257 48.7 103.033 50.2372 105.192C51.7744 107.358 54.5072 108.425 59.9606 110.56C71.4225 115.037 77.1504 117.276 81.2252 114.726C85.3 112.183 85.3 106.357 85.3 94.7062V78.4192C85.3 74.3566 85.3 72.3192 85.6904 70.5807C86.4565 67.0254 88.3862 63.827 91.1743 61.4917" stroke="black" stroke-width="12" stroke-linecap="round"/>
</svg>
